<mxfile host="app.diagrams.net" modified="2023-09-20T18:07:17.703Z" agent="Mozilla/5.0 (X11; Linux x86_64; rv:102.0) Gecko/20100101 Firefox/102.0" version="21.8.0" etag="Y1EiHgpNkfwgoNAmvump" type="github">
  <diagram name="PÃ¡gina-1" id="LfMEarzEctLrUgHNDByu">
    <mxGraphModel>
      <root>
        <mxCell id="0" />
        <mxCell id="1" parent="0" />
      </root>
    </mxGraphModel>
  </diagram>
</mxfile>
